<mxfile host="app.diagrams.net" modified="2020-10-02T04:34:20.847Z" agent="5.0 (Windows)" etag="zJ4M2LohndGesbyCzaS_" version="13.7.7" type="github">
  <diagram id="w7eTThsmB06BPjCYAfZA" name="Page-1">
    <mxGraphModel dx="920" dy="475" grid="1" gridSize="10" guides="1" tooltips="1" connect="1" arrows="1" fold="1" page="1" pageScale="1" pageWidth="827" pageHeight="1169" math="0" shadow="0">
      <root>
        <mxCell id="0" />
        <mxCell id="1" parent="0" />
        <mxCell id="3plvlCjY5yp-JgMp3wiJ-4" value="" style="shape=image;html=1;verticalAlign=top;verticalLabelPosition=bottom;labelBackgroundColor=#ffffff;imageAspect=0;aspect=fixed;image=https://cdn1.iconfinder.com/data/icons/social-networks-3/512/github-128.png" vertex="1" parent="1">
          <mxGeometry x="360" y="200" width="80" height="80" as="geometry" />
        </mxCell>
        <mxCell id="3plvlCjY5yp-JgMp3wiJ-10" value="" style="edgeStyle=orthogonalEdgeStyle;rounded=0;orthogonalLoop=1;jettySize=auto;html=1;" edge="1" parent="1" source="3plvlCjY5yp-JgMp3wiJ-5" target="3plvlCjY5yp-JgMp3wiJ-9">
          <mxGeometry relative="1" as="geometry" />
        </mxCell>
        <mxCell id="3plvlCjY5yp-JgMp3wiJ-5" value="" style="shape=image;html=1;verticalAlign=top;verticalLabelPosition=bottom;labelBackgroundColor=#ffffff;imageAspect=0;aspect=fixed;image=https://cdn2.iconfinder.com/data/icons/designer-skills/128/visualstudio-microsoft-webdesign-html-css-javascript-develop-128.png" vertex="1" parent="1">
          <mxGeometry x="360" y="330" width="80" height="80" as="geometry" />
        </mxCell>
        <mxCell id="3plvlCjY5yp-JgMp3wiJ-7" value="&lt;div&gt;Commit &amp;amp; Push&lt;/div&gt;" style="text;html=1;align=center;verticalAlign=middle;resizable=0;points=[];autosize=1;" vertex="1" parent="1">
          <mxGeometry x="400" y="310" width="100" height="20" as="geometry" />
        </mxCell>
        <mxCell id="3plvlCjY5yp-JgMp3wiJ-8" value="Gitpod" style="text;html=1;align=center;verticalAlign=middle;resizable=0;points=[];autosize=1;" vertex="1" parent="1">
          <mxGeometry x="375" y="400" width="50" height="20" as="geometry" />
        </mxCell>
        <mxCell id="3plvlCjY5yp-JgMp3wiJ-9" value="GitHub" style="text;html=1;align=center;verticalAlign=middle;resizable=0;points=[];autosize=1;" vertex="1" parent="1">
          <mxGeometry x="375" y="280" width="50" height="20" as="geometry" />
        </mxCell>
      </root>
    </mxGraphModel>
  </diagram>
</mxfile>
